<svg width="350" height="227" viewBox="0 0 350 227" fill="none" xmlns="http://www.w3.org/2000/svg">
<g clip-path="url(#clip0)">
<path d="M349.86 223.64H0V226.197H349.86V223.64Z" fill="#85848B"/>
<path d="M277.18 178.497C277.18 180.463 265.717 186.197 252.1 186.197C238.483 186.197 227.873 180.463 227.873 178.497C227.873 176.53 238.91 177.163 252.54 177.163C266.17 177.163 277.18 176.527 277.18 178.497Z" fill="#504F60"/>
<path opacity="0.2" d="M277.18 178.497C277.18 180.463 265.717 186.197 252.1 186.197C238.483 186.197 227.873 180.463 227.873 178.497" fill="black"/>
<path d="M140.05 142.41C142.26 142.693 144.553 142.873 146.67 142.187C147.003 142.083 147.37 141.853 147.337 141.52C147.313 141.399 147.262 141.285 147.187 141.187C146.389 139.99 145.718 138.713 145.187 137.377C145.166 137.307 145.122 137.246 145.063 137.203C144.994 137.178 144.919 137.178 144.85 137.203C143.873 137.46 143.03 138.09 142.06 138.36C141.565 138.496 141.049 138.534 140.54 138.473C140.1 138.423 139.5 138.06 139.1 138.107C139.327 139.563 139.88 140.923 140.05 142.41Z" fill="#84A98C"/>
<path d="M181.847 138.72C183.303 137.72 184.813 136.67 185.673 135.127C185.735 135.034 185.77 134.927 185.777 134.817C185.762 134.708 185.72 134.604 185.653 134.517C184.834 133.214 183.779 132.076 182.543 131.16C181.898 131.616 181.316 132.153 180.81 132.76C180.443 133.147 179.43 133.76 179.42 134.35C179.42 134.683 179.807 135.07 179.987 135.35C180.23 135.71 180.46 136.077 180.68 136.45C180.807 136.633 181.963 138.647 181.847 138.72Z" fill="#84A98C"/>
<path d="M148.713 146.873C148.739 147.217 148.645 147.559 148.447 147.84C148.291 147.997 148.098 148.111 147.887 148.173C144.797 149.28 141.22 147.9 138.137 148.99C137.503 149.213 136.903 149.537 136.267 149.75C135.508 149.978 134.725 150.117 133.933 150.163C132.843 150.267 131.747 150.333 130.653 150.363C129.823 150.422 128.988 150.349 128.18 150.147C127.776 150.043 127.398 149.856 127.072 149.597C126.745 149.338 126.476 149.013 126.283 148.643C126.116 148.312 126.082 147.929 126.19 147.573C126.238 147.452 126.307 147.339 126.393 147.24C126.602 147.006 126.848 146.806 127.12 146.65L128.257 145.917C128.79 145.54 129.369 145.233 129.98 145.003C130.43 144.857 130.907 144.793 131.363 144.67C132.96 144.203 134.18 142.937 135.313 141.72L136.86 140.07C137.005 139.889 137.188 139.742 137.397 139.64C137.611 139.569 137.839 139.547 138.063 139.577C139.566 139.684 141.016 140.17 142.28 140.99C142.603 141.232 142.952 141.438 143.32 141.603C144.227 141.957 145.39 141.69 146.227 141.243C146.623 141.03 146.537 140.91 146.703 140.53C146.87 140.15 147.277 139.907 147.63 140.253C147.737 140.373 147.812 140.518 147.85 140.673C148.183 141.773 148.057 142.957 148.057 144.11C148.047 144.29 148.069 144.471 148.123 144.643C148.208 144.817 148.31 144.982 148.427 145.137C148.45 145.178 148.472 145.22 148.49 145.263C148.694 145.774 148.771 146.327 148.713 146.873V146.873Z" fill="#514E7F"/>
<path d="M148.713 146.873C148.739 147.217 148.645 147.558 148.447 147.84C148.291 147.996 148.098 148.111 147.887 148.173C144.797 149.28 141.22 147.9 138.137 148.99C137.503 149.213 136.903 149.537 136.267 149.75C135.508 149.978 134.725 150.117 133.933 150.163C132.843 150.267 131.747 150.333 130.653 150.363C129.823 150.422 128.988 150.349 128.18 150.147C127.776 150.043 127.398 149.856 127.072 149.597C126.745 149.338 126.476 149.013 126.283 148.643C126.116 148.312 126.082 147.929 126.19 147.573C126.238 147.451 126.307 147.339 126.393 147.24C126.573 147.617 126.703 148.117 126.817 148.297C126.97 148.563 127.178 148.794 127.427 148.974C127.677 149.154 127.962 149.279 128.263 149.34C128.715 149.368 129.167 149.31 129.597 149.17C132.397 148.477 135.373 148.467 138.063 147.417C138.987 147.053 139.867 146.57 140.837 146.35C141.807 146.13 142.837 146.19 143.837 146.107C145.417 145.98 146.947 145.503 148.503 145.253C148.704 145.768 148.776 146.324 148.713 146.873V146.873Z" fill="#464353"/>
<path d="M188.923 138.517C188.777 139.69 188.033 140.7 187.217 141.557C186.4 142.413 185.477 143.183 184.827 144.17C184.027 145.393 183.667 146.91 182.627 147.943C182.227 148.319 181.779 148.639 181.293 148.893C180.749 149.214 180.174 149.479 179.577 149.683C178.023 150.18 176.35 150.067 174.727 149.947C174.2 149.942 173.678 149.841 173.187 149.65C172.963 149.536 172.749 149.405 172.547 149.257C172.14 149.006 171.797 148.664 171.547 148.257C171.424 148.035 171.389 147.776 171.45 147.53C171.543 147.259 171.702 147.016 171.913 146.823C172.279 146.443 172.671 146.09 173.087 145.767C173.657 145.398 174.172 144.949 174.613 144.433C174.884 144.026 175.084 143.575 175.203 143.1C175.439 142.268 175.584 141.413 175.633 140.55C175.632 139.976 175.691 139.404 175.81 138.843C176.057 137.963 176.71 137.177 176.637 136.267C176.607 136.136 176.619 136 176.67 135.877C176.748 135.78 176.856 135.713 176.977 135.687C177.486 135.484 178.023 135.359 178.57 135.317C178.844 135.298 179.119 135.34 179.375 135.44C179.631 135.54 179.862 135.696 180.05 135.897C180.277 136.17 180.427 136.563 180.76 136.67C180.925 136.715 181.098 136.722 181.267 136.69C182.087 136.607 182.953 136.503 183.6 135.973C183.899 135.705 184.139 135.378 184.305 135.013C184.472 134.647 184.561 134.251 184.567 133.85C184.567 133.547 184.43 133.23 184.9 133.183C185.253 133.137 185.533 133.517 185.713 133.75C186.363 134.62 187.03 135.53 187.273 136.59C187.368 136.553 187.469 136.534 187.57 136.533C187.778 136.531 187.983 136.58 188.168 136.674C188.354 136.769 188.513 136.907 188.633 137.077C188.899 137.507 189.002 138.017 188.923 138.517Z" fill="#514E7F"/>
<path d="M188.923 138.517C188.777 139.69 188.033 140.7 187.217 141.557C186.4 142.413 185.477 143.183 184.827 144.17C184.027 145.393 183.667 146.91 182.627 147.943C182.228 148.319 181.779 148.639 181.293 148.893C180.749 149.214 180.174 149.479 179.577 149.683C178.023 150.18 176.35 150.067 174.727 149.947C174.2 149.942 173.678 149.841 173.187 149.65C172.963 149.536 172.749 149.405 172.547 149.257C172.14 149.006 171.797 148.664 171.547 148.257C171.859 148.106 172.2 148.025 172.547 148.017C173.267 148.057 173.793 148.737 174.483 148.947C175.467 149.243 176.447 148.55 177.443 148.313C178.093 148.16 178.777 148.2 179.42 147.98C179.956 147.773 180.452 147.473 180.883 147.093C181.475 146.67 182.002 146.163 182.447 145.587C182.816 145.011 183.123 144.397 183.363 143.757C183.89 142.529 184.509 141.343 185.217 140.21C185.321 140.031 185.448 139.865 185.593 139.717C185.75 139.573 185.927 139.473 186.103 139.347C186.77 138.843 187.047 138.013 187.28 137.2C187.343 136.953 187.432 136.713 187.543 136.483C187.751 136.482 187.957 136.53 188.142 136.625C188.327 136.719 188.486 136.857 188.607 137.027C188.894 137.467 189.006 137.998 188.923 138.517V138.517Z" fill="#464353"/>
<path d="M119.027 34.59C119.856 35.2117 120.539 36.0083 121.027 36.9233C121.493 37.8366 124.183 44.9233 124.027 45.9533C124.903 45.07 128.36 44.9266 129.247 44.0433C129.617 43.6733 131.613 41.8266 131.913 41.3966C132.213 40.9666 134.44 40.0633 134.683 39.61C135.593 37.98 128.23 31.8033 129.173 30.1933C129.225 30.1193 129.252 30.0305 129.25 29.94C129.228 29.864 129.186 29.7957 129.127 29.7433C128.523 29.1266 127.723 28.7433 126.997 28.2866C126.27 27.83 125.57 27.1933 125.373 26.3533C124.68 26.6723 124.044 27.1024 123.49 27.6266C122.139 28.7844 120.811 29.9655 119.507 31.17C118.997 31.6433 118.01 32.2733 117.773 32.95C117.493 33.6766 118.54 34.1933 119.027 34.59Z" fill="#A1616A"/>
<path d="M130.947 31.9667C129.817 32.7258 128.761 33.5896 127.793 34.5467C126.88 35.45 126.013 36.4967 125.793 37.76C125.7 38.2567 125.713 38.76 125.637 39.2633C125.303 41.4467 123.417 43.0467 122.583 45.09C122.342 45.7207 122.164 46.3739 122.053 47.04C121.819 48.3027 121.691 49.5827 121.67 50.8667C121.65 52.11 122.87 52.9667 123.317 54.1267C123.763 55.2867 123.883 56.48 124.11 57.67C124.537 59.9167 125.32 62.0833 126.11 64.2367C127.753 68.7767 133.08 81.3267 134.723 85.87C139.76 84.6067 153.167 81.7033 157.627 79.04C159.113 78.1533 147.31 68.15 148.9 67.46C148.991 67.4458 149.077 67.4108 149.152 67.3575C149.227 67.3043 149.289 67.2343 149.332 67.1532C149.375 67.072 149.399 66.9819 149.402 66.89C149.404 66.798 149.385 66.7067 149.347 66.6233C147.757 59.67 142.783 53.9567 140.527 47.1867C139.743 44.8367 138.337 42.83 137.27 40.5967C136.303 38.5733 135.787 36.3367 134.63 34.4133C134.412 34.0171 134.127 33.6618 133.787 33.3633C133.498 33.1421 133.186 32.9532 132.857 32.8C132.197 32.48 131.583 32.29 130.947 31.9667Z" fill="#514E7F"/>
<path d="M119.293 33.8C123.647 33.8 127.177 30.2705 127.177 25.9166C127.177 21.5628 123.647 18.0333 119.293 18.0333C114.939 18.0333 111.41 21.5628 111.41 25.9166C111.41 30.2705 114.939 33.8 119.293 33.8Z" fill="#A1616A"/>
<path d="M127.313 29.62C127.706 29.2576 128.2 29.0228 128.729 28.9466C129.258 28.8705 129.798 28.9565 130.277 29.1933C130.81 29.47 131.277 30.03 131.157 30.6166L135.067 30.6766C135.689 30.6596 136.311 30.7167 136.92 30.8466C137.533 30.98 138.08 31.3231 138.467 31.8166C138.513 31.8799 138.567 31.9566 138.647 31.9666C138.712 31.9676 138.775 31.9465 138.827 31.9066C139.428 31.605 140.106 31.4889 140.773 31.5733C142.887 31.71 144.84 32.7666 146.497 34.0866C146.795 34.292 147.027 34.5806 147.163 34.9166C147.3 35.36 147.137 35.9166 147.497 36.2333C147.497 39.8999 148.757 43.3266 149.597 46.8999C149.747 47.5366 150.357 48.1 150.78 48.6C151.303 49.1543 151.73 49.7919 152.043 50.4866C152.757 52.34 151.773 54.5199 152.467 56.3799C152.76 57.1666 153.327 57.8133 153.8 58.4966C154.424 59.2857 154.818 60.2314 154.94 61.23C154.97 61.6766 154.913 62.1266 154.94 62.5633C154.985 63.1639 155.097 63.7576 155.273 64.3333C155.558 65.4088 155.856 66.4833 156.167 67.5566C156.673 69.2899 157.333 71.16 158.887 72.0833C155.137 72.72 151.183 73.3433 147.61 72.04C147.112 71.8699 146.638 71.6333 146.203 71.3366C144.913 70.4166 144.29 68.8433 143.733 67.3566C143.113 65.6899 142.483 63.9933 142.357 62.22C142.358 61.6559 142.278 61.0947 142.12 60.5533C141.757 59.5866 140.787 59.0033 139.907 58.4666C138.913 57.9221 138.013 57.2222 137.24 56.3933C136.857 55.9758 136.563 55.4841 136.377 54.9486C136.191 54.4131 136.118 53.8452 136.16 53.28C136.227 52.73 136.443 52.2 136.463 51.6466C136.483 51.0933 136.237 50.46 135.707 50.3133C132.977 49.4866 131.673 46.2533 131.067 43.4666C130.805 42.0264 130.688 40.5635 130.717 39.1L130.68 36.2566C130.303 35.9139 130 35.498 129.789 35.0344C129.578 34.5708 129.464 34.0692 129.453 33.56C129.49 33.2629 129.484 32.9622 129.437 32.6666C129.305 32.3054 129.09 31.98 128.81 31.7166C128.207 31.098 127.703 30.391 127.313 29.62V29.62Z" fill="#464353"/>
<path d="M118.917 38.6333C118.827 39.5133 119.027 40.4166 118.83 41.2799C118.753 41.6133 118.62 41.9466 118.523 42.2566C118.228 43.4992 118.356 44.8049 118.887 45.9666C119.417 47.1169 120.052 48.2159 120.783 49.2499C121.031 49.6029 121.234 49.9846 121.39 50.3866C121.516 50.8087 121.594 51.2437 121.623 51.6833C121.816 53.4485 122.126 55.1989 122.55 56.9233C122.923 58.4166 127.163 71.1833 128.15 72.3666C128.329 72.6286 128.6 72.8132 128.91 72.8833C129.133 72.8917 129.355 72.8459 129.557 72.7499L131.557 71.9833C131.727 71.9312 131.884 71.845 132.02 71.73C132.207 71.511 132.309 71.2315 132.307 70.9433C132.45 69.3166 128.2 56.4599 127.66 54.9233C126.027 50.2833 123.853 45.8099 122.79 41.0066C122.493 39.6733 122.337 37.6199 121.36 36.5566C120.957 36.1166 121.093 36.3033 120.61 36.5333C120.366 36.6393 120.13 36.7629 119.903 36.9033C119.62 37.1 119.385 37.3573 119.214 37.6567C119.044 37.956 118.942 38.2896 118.917 38.6333Z" fill="#464353"/>
<path d="M124.987 47.4367C125.523 50.2733 126.077 53.1033 126.627 55.94L134.453 53.89C134.517 53.07 134.08 52.31 133.787 51.5567C133.073 49.7667 133.057 47.7733 132.48 45.9333C132.043 44.5333 131.283 43.2467 130.873 41.8367C130.637 41.0167 130.517 40.17 130.283 39.34C130.033 38.5249 129.726 37.7285 129.363 36.9567C128.924 35.8373 128.351 34.7752 127.657 33.7933C126.657 34.1667 125.59 34.6 125.02 35.5033C124.728 36.0123 124.561 36.5837 124.533 37.17C124.397 38.9267 125.033 40.6933 124.823 42.44C124.607 44.1034 124.662 45.7909 124.987 47.4367V47.4367Z" fill="#84A98C"/>
<path d="M134.583 85.17C135.023 86.8367 134.387 88.59 133.867 90.24C133.084 92.7253 132.55 95.2824 132.273 97.8733C132.239 98.5327 132.107 99.1833 131.88 99.8033C131.633 100.36 131.213 100.83 130.927 101.36C130.14 102.753 130.16 104.453 130.33 106.047C130.443 107.097 130.613 108.143 130.823 109.177C131.08 110.44 131.397 111.76 131.027 112.993C131.647 112.857 132.067 113.66 132.027 114.29C131.987 114.92 131.783 115.623 132.087 116.167C132.853 116.447 132.86 117.5 132.837 118.317C132.849 119.733 133.028 121.142 133.37 122.517C134.53 128.094 135.761 133.657 137.063 139.203C139.88 140.077 143.17 140.987 145.857 139.777C146.357 139.553 146.857 139.197 146.97 138.657C146.999 138.366 146.963 138.072 146.863 137.797L145.59 133.163C145.28 132.043 144.97 130.887 145.133 129.737C145.257 128.88 145.63 127.957 145.21 127.2C145.067 126.94 144.84 126.737 144.673 126.49C144.007 125.513 144.357 124.207 144.41 123.023C144.431 122.758 144.413 122.49 144.357 122.23C144.265 121.926 144.138 121.634 143.977 121.36C142.924 119.317 142.419 117.036 142.51 114.74C142.55 114.447 142.509 114.149 142.393 113.877C142.312 113.764 142.24 113.646 142.177 113.523C142.127 113.309 142.152 113.085 142.247 112.887C141.865 112.597 141.52 112.261 141.22 111.887C141.405 111.772 141.561 111.616 141.677 111.432C141.793 111.248 141.866 111.04 141.89 110.823C141.913 110.607 141.888 110.388 141.814 110.183C141.741 109.978 141.622 109.792 141.467 109.64C141.603 109.613 141.728 109.548 141.83 109.454C141.931 109.359 142.005 109.238 142.041 109.105C142.078 108.971 142.078 108.83 142.039 108.696C142.001 108.563 141.926 108.443 141.823 108.35C141.66 108.237 141.443 108.187 141.327 108.017C141.147 107.77 141.293 107.427 141.44 107.163L142.217 105.76C142.797 104.717 142.927 103.427 143.55 102.427C144.443 100.97 145.027 99.3467 145.603 97.74L147.847 91.55L149.357 92.86C149.86 93.2443 150.281 93.7247 150.597 94.2733C150.811 94.8156 150.947 95.3859 151 95.9667C151.553 99.3267 153.667 102.24 154.45 105.55C154.623 106.287 154.74 107.06 155.163 107.69C155.315 107.883 155.451 108.089 155.57 108.303C155.68 108.631 155.738 108.974 155.74 109.32C155.81 109.997 156.025 110.651 156.37 111.238C156.715 111.824 157.182 112.33 157.74 112.72C158.483 113.23 159.407 113.58 159.81 114.387C159.891 114.636 160.003 114.875 160.143 115.097C160.503 115.53 161.28 115.58 161.433 116.123C161.52 116.427 161.36 116.79 161.53 117.057C161.627 117.18 161.754 117.276 161.9 117.333L164.07 118.417C166.497 119.63 167.737 122.417 169.527 124.447C170.145 125.108 170.692 125.832 171.16 126.607C171.933 127.99 172.29 129.727 173.597 130.607C173.948 130.789 174.267 131.026 174.543 131.31C174.953 131.85 174.803 132.607 174.84 133.287C174.877 133.967 175.397 134.777 176.043 134.57C175.817 135.394 175.817 136.263 176.043 137.087C178.882 136.941 181.59 135.844 183.73 133.973C184.363 133.42 184.973 132.713 184.98 131.873C184.99 131.728 184.957 131.584 184.887 131.457C184.758 131.293 184.589 131.165 184.397 131.087C182.367 129.987 181.757 127.437 180.73 125.367C179.833 123.54 178.507 121.967 177.397 120.27C174.983 116.62 173.337 112.203 169.687 109.793C168.883 109.263 167.95 108.793 167.547 107.917C167.323 107.427 167.297 106.867 167.12 106.36C166.943 105.853 166.52 105.36 165.98 105.36C166.28 104.627 166.22 103.733 166.24 102.94C166.26 102.588 166.22 102.235 166.12 101.897C165.981 101.533 165.801 101.186 165.583 100.863C164.631 99.251 164.155 97.4018 164.21 95.53C164.237 94.5667 164.407 93.5733 164.117 92.6533C163.97 92.19 163.713 91.7667 163.537 91.32C163.27 90.5107 163.13 89.6653 163.12 88.8134L162.92 85.61C162.89 84.5432 162.751 83.4822 162.507 82.4433C161.84 79.9567 161.173 69.54 158.89 68.3667C156.607 67.1934 152.683 75.21 150.113 75.3667C148.976 75.414 147.853 75.6308 146.78 76.01C145.07 76.65 143.637 77.8434 142.24 79.01L137.513 82.98C136.513 83.8034 135.687 84.59 134.583 85.17Z" fill="#464353"/>
<path d="M111.897 17.1633C112.937 15.7433 114.723 14.99 116.483 14.9266C118.243 14.8633 119.977 15.4166 121.553 16.2C122.019 16.4646 122.516 16.6685 123.033 16.8066C123.867 16.9766 124.793 16.75 125.547 17.14C126.547 17.67 126.74 19.02 126.653 20.14C126.567 21.26 126.357 22.5033 126.953 23.4733C127.165 23.7499 127.358 24.0406 127.53 24.3433C127.787 24.92 127.637 25.5866 127.483 26.1966C127.093 25.8633 126.873 25.36 126.527 24.9733C126.18 24.5866 125.577 24.3266 125.147 24.6166C124.717 24.9066 124.723 25.4333 124.7 25.9066C124.677 26.38 124.557 26.9466 124.11 27.1C123.923 27.1424 123.728 27.1279 123.55 27.0584C123.372 26.9889 123.219 26.8675 123.11 26.71C122.347 25.7766 122.653 24.2866 121.897 23.3466C121.467 22.8133 120.75 22.5533 120.353 21.9933C120.04 21.5533 119.96 20.9933 119.687 20.52C119.413 20.0466 118.777 19.7 118.353 20.0266C118.209 20.1647 118.088 20.3257 117.997 20.5033C117.733 20.8814 117.349 21.1595 116.907 21.2925C116.466 21.4256 115.992 21.4059 115.563 21.2366C115.236 21.0354 114.881 20.8816 114.51 20.78C114.267 20.7678 114.026 20.8238 113.813 20.9416C113.601 21.0594 113.425 21.2343 113.307 21.4466C113.067 21.8708 112.952 22.3535 112.973 22.84C112.973 23.5066 113.093 24.2166 112.713 24.75C112.569 24.9507 112.388 25.1226 112.18 25.2566C111.623 25.6133 110.847 25.8533 110.333 25.4466C110.159 25.2846 110.03 25.0805 109.958 24.854C109.885 24.6275 109.872 24.3862 109.92 24.1533C110.02 23.6893 110.151 23.2327 110.313 22.7866C110.607 21.7533 110.223 20.59 110.543 19.6166C110.879 18.7401 111.334 17.9144 111.897 17.1633V17.1633Z" fill="#464353"/>
<path d="M116.12 40.68C116.07 40.923 116.096 41.1754 116.193 41.4034C116.292 41.5586 116.427 41.6878 116.587 41.7801C117.708 42.4784 118.983 42.8915 120.3 42.9834C120.479 42.9865 120.655 43.0322 120.813 43.1167C121.127 43.3234 121.147 43.7834 121.03 44.15C120.874 44.4959 120.794 44.8708 120.793 45.25C120.89 45.9467 121.717 46.2501 122.413 46.3534C123.39 46.4767 124.46 46.4134 125.233 45.8034C125.757 45.3256 126.157 44.7272 126.397 44.0601C128.31 39.6634 128.98 34.8034 130.917 30.42C131.063 30.1338 131.161 29.8252 131.207 29.5067C131.227 29.3473 131.205 29.1853 131.141 29.0376C131.078 28.8899 130.976 28.7618 130.847 28.6667C130.487 28.4434 129.927 28.57 129.683 28.22C129.563 28.0434 129.577 27.8034 129.47 27.6167C129.247 27.22 128.66 27.2834 128.26 27.0534C127.947 26.8867 127.73 26.5434 127.38 26.4767C127.208 26.467 127.036 26.4975 126.879 26.5658C126.721 26.6341 126.581 26.7382 126.47 26.87C125.333 27.93 124.737 29.4334 124.103 30.8534C123.136 33.03 122.004 35.1295 120.717 37.1334C120.867 36.9 119.997 35.1334 119.657 35.0567C119.06 34.9367 118.297 35.9834 117.973 36.3734C116.959 37.6035 116.316 39.0975 116.12 40.68V40.68Z" fill="#84A98C"/>
<path opacity="0.1" d="M128.23 27.3634C127.991 27.3674 127.755 27.4252 127.541 27.5325C127.327 27.6398 127.14 27.7939 126.993 27.9834C126.637 28.4467 126.567 29.0601 126.477 29.6501C126.173 31.5193 125.506 33.3109 124.513 34.9234" fill="black"/>
<path opacity="0.1" d="M129.93 28.6933C129.599 28.7007 129.277 28.794 128.993 28.9641C128.71 29.1342 128.475 29.3752 128.313 29.6633C128.093 30.1876 127.955 30.7432 127.907 31.31C127.621 32.5665 127.07 33.7474 126.29 34.7733" fill="black"/>
<path d="M209.15 93.86V89.72C209.149 86.6724 207.938 83.7498 205.783 81.5952C203.627 79.4405 200.704 78.23 197.657 78.23H34.16C31.1124 78.23 28.1895 79.4405 26.0342 81.5952C23.8789 83.7498 22.6676 86.6724 22.6667 89.72V97.3533L209.15 93.86Z" fill="#33323D"/>
<path d="M79.6433 73.3767C79.6433 73.3767 79.1766 102.33 84.31 111.857C89.4433 121.383 91.6433 162.827 91.6433 162.827C91.6433 162.827 145.457 168.393 182.957 156.16C220.457 143.927 300.25 138.923 300.25 138.923L286.803 48.2934C286.803 48.2934 220.373 44.0334 182.583 62.0567C144.793 80.08 79.6433 73.3767 79.6433 73.3767Z" fill="#8DD070"/>
<path opacity="0.1" d="M79.6433 73.3767C79.6433 73.3767 79.1766 102.33 84.31 111.857C89.4433 121.383 91.6433 162.827 91.6433 162.827C91.6433 162.827 145.457 168.393 182.957 156.16C220.457 143.927 300.25 138.923 300.25 138.923L286.803 48.2934C286.803 48.2934 220.373 44.0334 182.583 62.0567C144.793 80.08 79.6433 73.3767 79.6433 73.3767Z" fill="black"/>
<path d="M91.5534 83.9533C91.5534 83.9533 89.87 107.843 94.0934 115.477C98.3167 123.11 98.5134 157.187 98.5134 157.187C98.5134 157.187 146.943 159.433 181.393 147.707C215.843 135.98 288.237 128.373 288.237 128.373L280.01 54.2566C280.01 54.2566 220.11 53.64 185.15 70.1466C150.19 86.6533 91.5534 83.9533 91.5534 83.9533Z" fill="#8DD070"/>
<path opacity="0.1" d="M184.618 134.137C191.509 133.278 195.603 120.602 193.762 105.823C191.921 91.0435 184.843 79.7585 177.952 80.6168C171.061 81.4751 166.967 94.1517 168.808 108.931C170.649 123.71 177.727 134.995 184.618 134.137Z" fill="black"/>
<path opacity="0.2" d="M250.383 4.14334C250.383 4.14334 185.847 20.4767 155.413 49.2267C124.98 77.9766 60.9133 91.59 60.9133 91.59C60.9133 91.59 69.3533 119.287 77.16 126.78C84.9667 134.273 99.7733 173.047 99.7733 173.047C99.7733 173.047 152.697 161.827 184.63 138.667C216.563 115.507 290.987 86.2566 290.987 86.2566L250.383 4.14334Z" fill="black"/>
<path d="M59.9433 87.4433C59.9433 87.4433 68.3799 115.143 76.1799 122.637C83.9799 130.13 98.7933 168.9 98.7933 168.9C98.7933 168.9 151.723 157.683 183.66 134.523C215.597 111.363 290.013 82.1233 290.013 82.1233L249.41 3.8147e-06C249.41 3.8147e-06 184.877 16.3333 154.443 45.0833C124.01 73.8333 59.9433 87.4433 59.9433 87.4433Z" fill="#8DD070"/>
<path opacity="0.1" d="M59.9433 87.4433C59.9433 87.4433 68.3799 115.143 76.1799 122.637C83.9799 130.13 98.7933 168.9 98.7933 168.9C98.7933 168.9 151.723 157.683 183.66 134.523C215.597 111.363 290.013 82.1233 290.013 82.1233L249.41 3.8147e-06C249.41 3.8147e-06 184.877 16.3333 154.443 45.0833C124.01 73.8333 59.9433 87.4433 59.9433 87.4433Z" fill="black"/>
<path d="M74.5133 93.8567C74.5133 93.8567 80.2433 117.113 86.6066 123.08C92.97 129.047 103.607 161.413 103.607 161.413C103.607 161.413 150.387 148.687 179.577 126.953C208.767 105.22 275.34 75.7967 275.34 75.7967L244.77 7.75667C244.77 7.75667 187.573 25.5467 159.363 51.9867C131.153 78.4267 74.5133 93.8567 74.5133 93.8567Z" fill="#8DD070"/>
<path opacity="0.1" d="M178.498 113.059C184.793 110.128 184.799 96.8069 178.512 83.3057C172.225 69.8045 162.025 61.236 155.73 64.1674C149.435 67.0988 149.429 80.42 155.716 93.9212C162.003 107.422 172.203 115.991 178.498 113.059Z" fill="black"/>
<path opacity="0.1" d="M213.563 97.9233V212.923C213.563 214.229 213.306 215.523 212.806 216.729C212.306 217.936 211.574 219.032 210.65 219.955C209.726 220.879 208.63 221.611 207.423 222.111C206.216 222.61 204.923 222.867 203.617 222.867H32.6167C29.9802 222.866 27.4519 221.818 25.5879 219.953C23.7238 218.088 22.6767 215.56 22.6767 212.923V86.33C27.5767 88.15 27.5767 88.15 32.6167 87.9967H203.617C206.251 87.9967 208.778 89.0419 210.643 90.9029C212.508 92.7639 213.558 95.2888 213.563 97.9233V97.9233Z" fill="black"/>
<path d="M213.563 99.3866V214.387C213.563 217.024 212.514 219.553 210.649 221.418C208.784 223.282 206.254 224.33 203.617 224.33H32.6167C29.9802 224.329 27.4519 223.281 25.5879 221.416C23.7238 219.552 22.6767 217.023 22.6767 214.387V87.79C27.5767 89.6067 27.5767 89.6067 32.6167 89.4567H203.617C206.252 89.4566 208.779 90.5023 210.644 92.3641C212.509 94.2258 213.559 96.7515 213.563 99.3866V99.3866Z" fill="#504F60"/>
<path opacity="0.1" d="M213.077 141.903V178.68H177.41C172.576 178.615 167.962 176.649 164.567 173.207C161.171 169.766 159.268 165.126 159.268 160.292C159.268 155.457 161.171 150.817 164.567 147.376C167.962 143.934 172.576 141.968 177.41 141.903H213.077Z" fill="black"/>
<path d="M213.563 140.923V177.707H177.897C173.063 177.642 168.449 175.676 165.053 172.234C161.658 168.793 159.754 164.153 159.754 159.318C159.754 154.484 161.658 149.844 165.053 146.402C168.449 142.961 173.063 140.995 177.897 140.93L213.563 140.923Z" fill="#33323D"/>
<path opacity="0.1" d="M179.607 167.463C183.567 167.463 186.777 164.253 186.777 160.293C186.777 156.333 183.567 153.123 179.607 153.123C175.647 153.123 172.437 156.333 172.437 160.293C172.437 164.253 175.647 167.463 179.607 167.463Z" fill="black"/>
<path d="M180.093 166.49C184.053 166.49 187.263 163.28 187.263 159.32C187.263 155.36 184.053 152.15 180.093 152.15C176.133 152.15 172.923 155.36 172.923 159.32C172.923 163.28 176.133 166.49 180.093 166.49Z" fill="#84A98C"/>
<path d="M275.473 140.607C275.757 143.677 273.433 146.657 274.11 149.663C274.257 150.307 274.533 150.913 274.633 151.563C274.913 153.35 273.85 155.04 272.833 156.533L264.1 169.347C263.75 169.91 263.331 170.427 262.853 170.887C261.187 172.373 258.68 172.22 256.487 172.663C254.945 172.976 253.489 173.62 252.22 174.55C252.167 174.595 252.133 174.659 252.126 174.729C252.118 174.798 252.138 174.868 252.18 174.923C252.542 175.417 253.023 175.812 253.577 176.072C254.131 176.332 254.742 176.45 255.353 176.413C255.583 176.717 255.353 177.16 255.02 177.377C254.55 177.71 253.907 177.79 253.813 178.583C253.78 178.86 253.836 179.141 253.973 179.383C254.325 179.922 254.872 180.304 255.5 180.447C258.523 181.37 261.79 179.747 264.053 177.537C266.317 175.327 267.94 172.537 270.16 170.287C271.39 169.043 272.787 167.977 274.053 166.77C276.58 164.363 278.543 161.437 280.44 158.507C281.01 157.623 281.583 156.717 281.823 155.693C282.063 154.67 281.95 153.637 282.22 152.647C282.573 151.347 283.523 150.313 284.313 149.223C285.863 147.09 286.896 144.48 286.693 141.853C286.49 139.227 284.86 136.63 282.38 135.737C281.611 135.428 280.763 135.377 279.963 135.59C278.947 135.903 278.197 136.743 277.503 137.547L275.837 139.463C275.421 139.884 275.092 140.382 274.87 140.93C274.763 141.205 274.738 141.505 274.797 141.794C274.856 142.083 274.997 142.349 275.203 142.56" fill="#FBBEBE"/>
<path opacity="0.05" d="M275.473 140.607C275.757 143.677 273.433 146.657 274.11 149.663C274.257 150.307 274.533 150.913 274.633 151.563C274.913 153.35 273.85 155.04 272.833 156.533L264.1 169.347C263.75 169.91 263.331 170.427 262.853 170.887C261.187 172.373 258.68 172.22 256.487 172.663C254.945 172.976 253.489 173.62 252.22 174.55C252.167 174.595 252.133 174.659 252.126 174.729C252.118 174.798 252.138 174.868 252.18 174.923C252.542 175.417 253.023 175.812 253.577 176.072C254.131 176.332 254.742 176.45 255.353 176.413C255.583 176.717 255.353 177.16 255.02 177.377C254.55 177.71 253.907 177.79 253.813 178.583C253.78 178.86 253.836 179.141 253.973 179.383C254.325 179.922 254.872 180.304 255.5 180.447C258.523 181.37 261.79 179.747 264.053 177.537C266.317 175.327 267.94 172.537 270.16 170.287C271.39 169.043 272.787 167.977 274.053 166.77C276.58 164.363 278.543 161.437 280.44 158.507C281.01 157.623 281.583 156.717 281.823 155.693C282.063 154.67 281.95 153.637 282.22 152.647C282.573 151.347 283.523 150.313 284.313 149.223C285.863 147.09 286.896 144.48 286.693 141.853C286.49 139.227 284.86 136.63 282.38 135.737C281.611 135.428 280.763 135.377 279.963 135.59C278.947 135.903 278.197 136.743 277.503 137.547L275.837 139.463C275.421 139.884 275.092 140.382 274.87 140.93C274.763 141.205 274.738 141.505 274.797 141.794C274.856 142.083 274.997 142.349 275.203 142.56" fill="black"/>
<path d="M282.083 219.64C280.177 220.803 277.8 220.873 275.583 220.603C275.227 220.56 274.803 220.533 274.583 220.81C274.25 221.21 274.643 221.81 275.05 222.12C276.357 223.102 277.894 223.734 279.513 223.957C280.96 224.162 282.419 224.259 283.88 224.247C287.88 224.317 291.88 224.383 295.817 223.81C296.05 223.792 296.277 223.726 296.483 223.617C296.737 223.438 296.914 223.17 296.977 222.867C297.247 221.84 296.727 220.74 295.94 220.027C295.153 219.313 294.143 218.917 293.157 218.533L289.69 217.183C288.877 216.867 287.573 216.027 286.69 216.093C285.03 216.213 283.46 218.833 282.083 219.64Z" fill="#3F3D56"/>
<path opacity="0.05" d="M282.083 219.64C280.177 220.803 277.8 220.873 275.583 220.603C275.227 220.56 274.803 220.533 274.583 220.81C274.25 221.21 274.643 221.81 275.05 222.12C276.357 223.102 277.894 223.734 279.513 223.957C280.96 224.162 282.419 224.259 283.88 224.247C287.88 224.317 291.88 224.383 295.817 223.81C296.05 223.792 296.277 223.726 296.483 223.617C296.737 223.438 296.914 223.17 296.977 222.867C297.247 221.84 296.727 220.74 295.94 220.027C295.153 219.313 294.143 218.917 293.157 218.533L289.69 217.183C288.877 216.867 287.573 216.027 286.69 216.093C285.03 216.213 283.46 218.833 282.083 219.64Z" fill="black"/>
<path d="M284.513 173.62C283.07 175.54 281.577 177.757 281.933 180.133C282.127 181.413 282.843 182.543 283.37 183.727C284.083 185.333 284.457 187.06 284.823 188.78C285.363 191.293 285.907 193.813 286.237 196.367C286.613 199.25 284.843 207.593 284.68 210.497C284.64 211.197 284.557 211.953 284.07 212.457C283.88 212.657 283.627 212.817 283.54 213.077C283.489 213.327 283.531 213.588 283.657 213.81C284.47 215.643 286.133 217.01 287.99 217.79C289.847 218.57 294.323 219.917 296.347 219.987C296.613 220.016 296.883 219.981 297.133 219.883C297.403 219.719 297.614 219.476 297.74 219.187C299.19 216.413 297.797 206.553 297.817 203.423C297.837 200.813 298.453 198.22 298.34 195.613C298.247 193.52 297.673 191.473 297.483 189.387C297.15 185.967 297.777 182.53 298.407 179.15C298.887 176.557 299.37 173.963 299.987 171.403C300.363 169.84 300.8 168.263 301.653 166.907C302.32 165.83 303.257 164.93 304.033 163.907C306.189 161.08 307.147 157.52 306.7 153.993C306.653 153.66 301.7 155.25 301.263 155.44C299.482 156.194 297.842 157.249 296.417 158.557C295.27 159.65 294.367 161.11 293.363 162.333C291.943 164.064 290.541 165.808 289.157 167.563C287.577 169.57 286.029 171.589 284.513 173.62Z" fill="#464353"/>
<path opacity="0.05" d="M284.513 173.503C283.07 175.423 281.577 177.643 281.933 180.017C282.127 181.3 282.843 182.43 283.37 183.613C284.083 185.217 284.457 186.947 284.823 188.663C285.363 191.18 285.907 193.7 286.237 196.25C286.613 199.137 284.843 207.477 284.68 210.38C284.64 211.08 284.557 211.84 284.07 212.343C283.88 212.54 283.627 212.7 283.54 212.96C283.489 213.211 283.53 213.471 283.657 213.693C284.47 215.53 286.133 216.893 287.99 217.693C289.847 218.493 294.323 219.19 296.347 219.257C296.613 219.286 296.883 219.251 297.133 219.153C297.403 218.991 297.615 218.749 297.74 218.46C299.19 215.687 297.797 206.46 297.817 203.327C297.837 200.713 298.453 198.123 298.34 195.513C298.247 193.42 297.673 191.373 297.483 189.29C297.15 185.867 297.777 182.43 298.407 179.05C298.887 176.46 299.37 173.867 299.987 171.303C300.363 169.74 300.8 168.163 301.653 166.807C302.32 165.73 303.257 164.83 304.033 163.807C306.19 160.981 307.148 157.42 306.7 153.893C306.653 153.56 301.7 155.15 301.263 155.34C299.482 156.097 297.843 157.152 296.417 158.46C295.27 159.55 294.367 161.01 293.363 162.233C291.943 163.964 290.541 165.709 289.157 167.467C287.577 169.458 286.029 171.47 284.513 173.503Z" fill="black"/>
<path d="M268.453 131.333C272.921 131.333 276.543 127.711 276.543 123.243C276.543 118.775 272.921 115.153 268.453 115.153C263.985 115.153 260.363 118.775 260.363 123.243C260.363 127.711 263.985 131.333 268.453 131.333Z" fill="#FBBEBE"/>
<path d="M275.74 122.903C276.487 124.096 277.467 125.125 278.621 125.93C279.775 126.735 281.08 127.3 282.457 127.59L281.847 129.807C280.793 133.613 279.61 137.64 276.67 140.28C277.003 138.99 276.577 137.613 275.85 136.493C275.123 135.373 274.103 134.493 273.103 133.623L268.447 129.59C268.312 129.481 268.199 129.347 268.113 129.197C267.998 128.912 267.998 128.594 268.113 128.31C268.707 126.463 270.4 125.31 271.78 124.063C272.473 123.419 273.091 122.699 273.623 121.917C274.553 120.59 275.13 121.923 275.74 122.903Z" fill="#FBBEBE"/>
<path d="M257.797 115.11L257.613 113.59C258.89 113.923 260.103 112.837 260.92 111.713C261.737 110.59 262.493 109.267 263.737 108.797C265.247 108.23 266.847 109.13 268.29 109.89C269.906 110.787 271.679 111.364 273.513 111.59C273.806 111.6 274.096 111.647 274.377 111.73C275.317 112.063 275.763 113.243 275.9 114.313C276.037 115.383 276 116.52 276.463 117.473C276.797 118.197 277.417 118.733 277.797 119.447C278.797 121.36 277.83 123.977 278.873 125.853L276.28 123.477C276.043 123.26 275.71 123.033 275.447 123.217C275.24 123.363 275.223 123.68 275.14 123.933C274.89 124.673 273.963 124.893 273.293 124.6C272.623 124.307 272.133 123.67 271.627 123.09C270.48 121.737 269.113 120.547 267.513 119.97C266.812 119.708 266.063 119.598 265.316 119.647C264.569 119.697 263.841 119.904 263.18 120.257C261.97 120.94 261.083 122.533 259.6 122.59C257.567 122.667 256.72 118.88 255.78 117.383C256.124 117.125 256.366 116.753 256.463 116.334C256.561 115.914 256.508 115.474 256.313 115.09C256.45 115.033 257.767 114.877 257.797 115.11Z" fill="#464353"/>
<path d="M157.733 67.8133C157.083 68.3915 156.482 69.0225 155.937 69.7C155.387 70.3869 155.095 71.2439 155.11 72.1233C155.113 72.3784 155.194 72.6263 155.343 72.8333C155.419 72.9324 155.525 73.0053 155.644 73.0417C155.764 73.0782 155.892 73.0764 156.01 73.0367C156.144 72.9684 156.259 72.8675 156.343 72.7433C156.696 72.32 157.069 71.915 157.463 71.53C157.607 71.3867 157.797 71.2367 157.99 71.29C158.077 71.3207 158.155 71.3722 158.217 71.44C158.441 71.6339 158.604 71.8886 158.687 72.1733C158.803 72.6833 158.507 73.1933 158.17 73.5933C157.833 73.9933 157.437 74.3767 157.3 74.88C157.248 75.0129 157.248 75.1604 157.3 75.2933C157.364 75.3895 157.455 75.4657 157.56 75.5133C158.037 75.7761 158.567 75.9309 159.11 75.9666C159.654 76.0023 160.199 75.9181 160.707 75.72C161.373 75.45 161.967 74.9867 162.653 74.7467C162.951 74.6653 163.239 74.5536 163.513 74.4133C163.71 74.2826 163.878 74.1143 164.009 73.918C164.14 73.7218 164.231 73.5015 164.277 73.27C164.363 72.8073 164.38 72.3343 164.327 71.8666C164.244 70.0558 163.856 68.272 163.18 66.59C163.141 66.4815 163.074 66.385 162.987 66.31C162.886 66.2488 162.771 66.2176 162.653 66.22C161.8 66.13 160.4 65.6933 159.577 66.01C159.289 66.1679 159.04 66.3889 158.85 66.6566C158.697 66.8266 157.733 67.59 157.733 67.8133Z" fill="#A1616A"/>
<path d="M157.463 67.0599C157.463 66.2466 156.463 64.2833 158.053 64.1533C158.053 63.2833 156.823 62.7433 157.053 61.8199C157.127 61.5133 157.387 61.2633 157.417 60.9499C157.517 60.0599 155.91 59.5766 156.177 58.7233C156.277 58.3899 156.63 58.1966 156.707 57.8666C156.887 57.0966 155.51 56.7533 155.483 55.9633C155.483 55.6966 155.633 55.4466 155.62 55.1799C155.62 54.8466 155.33 54.5933 155.17 54.3033C154.753 53.5599 154.957 52.4099 154.197 52.0266C154.7 52.0699 154.863 51.3233 154.657 50.8666C154.45 50.4099 154.027 50.0133 154.023 49.5066C154.048 49.323 154.048 49.1369 154.023 48.9533C153.883 48.4666 153.087 48.4266 152.953 47.9533C152.936 47.7716 152.931 47.589 152.937 47.4066C152.883 47.0299 152.497 46.7899 152.133 46.6833C151.756 46.6192 151.393 46.4894 151.06 46.2999C150.827 46.1233 150.557 45.8299 150.307 45.9666C150.213 46.0233 150.167 46.1299 150.097 46.2099C149.797 46.5599 149.223 46.4066 148.847 46.1499C147.733 45.3933 147.18 44.0366 146.943 42.7133C146.707 41.3899 146.713 40.0233 146.417 38.7133C146.326 38.305 146.206 37.9039 146.057 37.5133C145.93 37.18 145.523 36.6566 145.497 36.32C145.437 35.5533 147.023 36.0766 147.627 36.1533C148.212 36.2105 148.792 36.3221 149.357 36.4866C149.96 36.7145 150.551 36.9737 151.127 37.2633C153.533 38.3266 156.44 38.4566 158.373 40.2433C159.01 40.8299 159.547 41.5999 160.373 41.8666C160.752 41.9393 161.127 42.0362 161.493 42.1566C162.41 42.5866 162.553 43.8033 163.053 44.6833C163.211 44.9157 163.348 45.161 163.463 45.4166C163.56 45.7181 163.605 46.0336 163.597 46.3499L163.667 48.6599C163.78 52.5299 163.893 56.4099 163.48 60.2566C163.347 61.5266 163.147 62.8333 163.523 64.0533C163.623 64.3866 163.763 64.6999 163.857 65.0366C163.939 65.4313 163.982 65.8333 163.983 66.2366L164.037 67.7333C164.055 67.8496 164.029 67.9687 163.963 68.0666C163.908 68.1118 163.842 68.144 163.773 68.1607C163.703 68.1775 163.63 68.1783 163.56 68.1633C161.477 67.9766 159.37 66.8033 157.403 67.5132" fill="#464353"/>
<path d="M252.537 182.06C266.152 182.06 277.19 180.465 277.19 178.497C277.19 176.529 266.152 174.933 252.537 174.933C238.921 174.933 227.883 176.529 227.883 178.497C227.883 180.465 238.921 182.06 252.537 182.06Z" fill="#504F60"/>
<path d="M273.747 178.67C273.313 176.813 273.043 175.183 273.043 175.183C273.043 175.183 273.143 173.163 272.237 171.647V171.14V167.407C272.495 166.729 272.81 166.074 273.18 165.45C273.847 164.277 273.18 159.977 273.18 159.977C273.18 159.977 270.69 153.913 271.293 150.067C271.897 146.22 266.18 132.987 266.18 132.987C266.215 131.71 266.395 130.442 266.717 129.207C266.778 128.947 266.802 128.68 266.79 128.413C266.79 128.38 266.79 128.35 266.79 128.317C266.79 128.283 266.79 128.337 266.79 128.347C266.703 125.81 264.697 121.057 264.697 121.057L264.967 111.997C264.967 111.997 266.247 106.663 264.16 99.48C263.43 96.9767 262.963 94.9734 262.667 93.4267C262.633 93.2534 262.6 93.0934 262.573 92.9234C266.87 92.2567 270.153 91.7234 270.153 91.7234C270.153 91.7234 267.66 81.2934 265.977 79.4667C264.293 77.64 262.947 71.9034 262.947 71.9034C262.947 71.9034 262.07 64.54 263.487 62.3867C264.903 60.2334 265.103 56.52 265.103 56.52C265.103 56.52 268.333 54.1867 268.74 53.13C269.147 52.0734 269.817 49.74 269.817 48.5034C269.817 47.2667 269.413 46.17 269.547 45.5034C269.68 44.8367 268.603 42.3734 269.143 41.2C269.283 40.8396 269.355 40.4566 269.357 40.07C269.358 40.059 269.358 40.0478 269.357 40.0367C269.357 40.0367 269.357 40.0367 269.357 40.0367C269.362 39.0099 269.267 37.9851 269.073 36.9767C268.139 36.1877 267.049 35.605 265.873 35.2667L265.803 34.9867L265.62 34.2534C265.518 34.1857 265.412 34.1234 265.303 34.0667V33.8L265.273 32.74L265.78 30.36C266.78 26.22 261.25 25.6034 261.25 25.6034C260.915 24.9683 260.357 24.4793 259.683 24.23C258.573 23.84 259.5 30.4567 260.017 30.8967C260.407 31.23 261.613 33.29 262.197 34.31L262.29 34.4767C262.199 34.5588 262.114 34.6479 262.037 34.7434L262.247 36.18L262.28 36.4C261.914 36.8551 261.616 37.3617 261.397 37.9034C261.397 37.9034 262.397 39.01 262.207 40.2367C262.017 41.4634 262.517 43.02 262.54 43.1034C262.48 43.0334 261.77 42.2667 261.06 42.4534C260.35 42.64 258.367 43.2367 258.367 43.2367C258.367 43.2367 256.887 43.4967 257.033 43.8234C257.18 44.15 256.033 45.5834 256.033 45.5834L252.053 41.81C252.013 41.6967 251.97 41.5834 251.937 41.4767C251.774 40.9326 251.663 40.3747 251.603 39.81C252.037 39.7069 252.463 39.5721 252.877 39.4067C253.295 39.2631 253.672 39.0207 253.977 38.7C254.38 38.2234 254.457 37.5767 254.62 36.9834C254.933 35.8234 255.62 34.7934 256.097 33.69C256.904 31.8256 257.164 29.7701 256.847 27.7634C256.786 27.145 256.576 26.5504 256.237 26.03C255.587 25.1367 254.407 24.7734 253.55 24.06C252.693 23.3467 252.14 22.2567 251.14 21.7267C250.237 21.2434 249.14 21.3 248.12 21.4667C246.128 21.7952 244.214 22.4915 242.477 23.52C241.897 23.8534 241.257 24.2634 240.59 24.14C240.017 24.0367 239.59 23.58 239.23 23.14C239.234 23.1218 239.24 23.104 239.247 23.0867C239.23 23.0705 239.216 23.0526 239.203 23.0334C238.782 23.9695 238.57 24.9867 238.583 26.0134C238.583 26.1734 238.583 26.3467 238.603 26.49V26.6567C238.603 26.7034 238.603 26.75 238.603 26.7934C238.603 26.8644 238.593 26.9351 238.573 27.0034C238.489 27.2073 238.362 27.3904 238.2 27.54C238.078 27.679 237.966 27.8272 237.867 27.9834C237.867 27.93 237.9 27.8767 237.92 27.82C237.666 28.1912 237.522 28.6271 237.507 29.0767C237.488 29.404 237.595 29.726 237.807 29.9767C238.006 30.1705 238.224 30.3446 238.457 30.4967C238.378 30.9367 238.337 31.3829 238.337 31.83C238.344 33.1555 238.694 34.4567 239.351 35.6076C240.009 36.7586 240.952 37.7204 242.09 38.4C242.137 38.51 242.18 38.6234 242.223 38.7334C242.733 40.0667 243.117 41.6334 242.947 43.0667C242.947 43.17 242.917 43.2767 242.9 43.38C242.883 43.4834 242.8 43.49 242.757 43.5467C242.757 43.5467 236.18 43.6134 234.633 42.2134C233.087 40.8134 230.727 45.6367 230.727 45.6367C230.727 45.6367 228.37 46.0934 227.897 45.6367C227.423 45.18 224.667 45.5734 224.667 45.5734C223.537 44.5689 222.068 44.0326 220.557 44.0734C219.641 43.3777 218.631 42.8164 217.557 42.4067V42.4067L217.483 42.38C217.009 42.2072 216.502 42.1434 216 42.1934C216 42.1934 212.767 39.5267 211.823 38.0867C210.88 36.6467 206.39 31.33 206.37 31.3067V31.05L206.32 30.2767C206.187 30.2976 206.052 30.3088 205.917 30.31C205.893 30.2334 205.86 30.1434 205.827 30.04C205.568 29.2857 205.249 28.5534 204.873 27.85C204.873 27.85 204.873 26.8734 205.157 26.6267C205.44 26.38 205.04 22.7967 205.04 22.7967C205.04 22.7967 202.127 15.9867 199.517 21.07C199.517 21.07 194.583 24.36 198.723 28.1934C198.723 28.1934 200.39 28.9934 200.61 29.6267C200.763 30.0367 201.323 31.1867 201.7 31.96L201.87 32.2934L201.823 32.3334L201.883 32.9734L201.91 33.22C201.13 33.6634 200.6 34.1034 200.73 34.4334C200.96 34.9981 201.118 35.5893 201.2 36.1934C201.2 36.1934 206.927 43.3667 207.667 46.43C207.667 46.43 223.023 55.5567 228.073 56.2067L227.18 60.7567C227.05 61.9913 226.983 63.2319 226.98 64.4734C227.047 65.45 226.373 69.8834 226.373 69.8834C226.373 69.8834 225.497 76.4034 224.757 77.3167C224.017 78.23 224.15 82.14 224.15 82.14C223.975 84.0118 223.641 85.8653 223.15 87.68C222.41 90.1567 222.947 93.2234 222.947 93.2234C222.947 93.2234 220.39 99.09 226.517 95.1134C226.517 95.1134 229.517 94.9267 232.99 94.8067C232.99 94.92 232.99 95.0367 232.99 95.14C232.99 95.5867 232.99 96.07 232.967 96.5767C232.92 99.9367 232.9 104.577 233.053 108.07C233.323 114.263 235.21 126.52 235.21 126.52V132.69C235.088 133.269 235.028 133.859 235.03 134.45C234.99 136.621 235.568 138.758 236.697 140.613L237.17 144.72C237.17 144.72 238.277 147.427 238.297 149.053C238.292 149.184 238.277 149.315 238.25 149.443C238.207 149.65 238.189 149.862 238.197 150.073C238.133 151.94 239.257 156.407 239.257 156.407C239.257 156.407 239.323 160.903 239.997 161.167C240.573 161.39 239.227 163.757 238.827 164.437C238.816 164.395 238.808 164.353 238.803 164.31L238.72 164.443C238.581 164.807 238.51 165.194 238.51 165.583C238.472 165.89 238.522 166.202 238.654 166.482C238.787 166.761 238.995 166.998 239.257 167.163C240.537 167.947 241.223 168.597 240.137 168.857C239.737 168.919 239.341 169.002 238.95 169.107C238.95 169.057 238.91 169.003 238.893 168.957C238.74 169.017 238.612 169.128 238.531 169.271C238.451 169.414 238.422 169.581 238.45 169.743C238.46 170.272 238.596 170.791 238.847 171.257C239.923 173.67 240.67 174.59 240.67 174.59L241.187 174.533C241.111 174.731 241.01 174.918 240.887 175.09C240.69 175.37 240.43 175.598 240.127 175.757C239.844 175.926 239.53 176.033 239.203 176.073C238.838 176.085 238.48 176.174 238.151 176.334C237.823 176.493 237.532 176.72 237.297 177C236.63 177.87 236.203 179.053 237.53 180.093L242.347 181.76C242.347 181.76 250.633 182.837 250.193 180.977C249.753 179.117 249.487 177.49 249.487 177.49C249.522 176.354 249.294 175.226 248.82 174.193C248.733 174.025 248.635 173.862 248.527 173.707L248.82 173.677C248.82 173.677 249.427 169.567 250.233 168.787C250.42 168.607 250.463 168.453 250.42 168.36C250.503 168.137 250.29 168.007 250.02 167.93L249.96 168.093C249.696 168.036 249.427 168.006 249.157 168.003C249.157 168.003 248.887 165.853 249.763 165.07C249.834 164.981 249.886 164.878 249.915 164.768C249.944 164.658 249.951 164.543 249.933 164.43C249.94 164.135 249.909 163.84 249.84 163.553C249.831 163.572 249.821 163.59 249.81 163.607C249.37 161.653 247.877 158.55 247.877 158.55C247.877 158.55 247.81 156.597 248.35 155.813C248.89 155.03 248.28 145.187 248.28 145.187C248.28 145.187 248.483 140.43 247.877 138.213C247.27 135.997 248.617 133.387 248.617 133.387C248.617 133.387 248.617 133.337 248.617 133.247V133.213L248.54 132.463C248.538 132.479 248.538 132.495 248.54 132.51C248.403 131.25 248.147 128.967 247.957 127.913C247.687 126.413 248.027 119.247 248.027 119.247L249.237 116.18L251.393 121.463L253.683 128.503C253.683 128.503 254.817 129.99 254.843 131.503C254.843 131.577 254.843 131.65 254.843 131.723C254.825 131.879 254.816 132.036 254.817 132.193C254.776 133.083 255.02 133.962 255.513 134.703C255.513 134.703 256.12 138.037 257.063 138.873C258.007 139.71 258.007 141.35 258.007 141.35C258.007 141.35 259.15 146.177 259.673 147.017C260.127 147.73 260.15 149.683 260.147 150.293C260.147 150.403 260.147 150.467 260.147 150.467C260.147 150.467 260.307 152.193 260.3 153.64C260.3 153.82 260.3 153.993 260.3 154.157C260.302 154.145 260.302 154.132 260.3 154.12C260.3 154.515 260.253 154.909 260.16 155.293L260.14 155.36C260.14 155.277 260.14 155.197 260.163 155.117C259.929 156.099 259.817 157.107 259.83 158.117C259.8 159.85 260.063 161.903 261.113 163.117C262.933 165.203 264.077 164.943 264.077 164.943C264.077 164.943 263.203 167.55 262.123 168.073C262.083 168.093 262.044 168.117 262.01 168.147C262.01 168.093 261.99 168.043 261.983 167.993C261.863 168.123 261.771 168.277 261.714 168.445C261.656 168.612 261.635 168.79 261.65 168.967C261.573 170.113 262.297 171.967 262.983 172.83C263.238 173.08 263.551 173.263 263.893 173.363C263.839 173.402 263.782 173.436 263.723 173.467C263.604 173.533 263.48 173.591 263.353 173.643C263.178 173.718 262.993 173.766 262.803 173.787C262.438 173.796 262.079 173.884 261.75 174.044C261.421 174.204 261.13 174.432 260.897 174.713C260.23 175.58 259.803 176.763 261.13 177.803L265.947 179.47C265.947 179.47 274.18 180.527 273.747 178.67Z" fill="url(#paint0_linear)"/>
<path d="M242.11 181.75L237.443 180.083C236.157 179.043 236.567 177.86 237.217 176.99C237.44 176.713 237.721 176.486 238.039 176.326C238.358 176.167 238.707 176.077 239.063 176.063C239.379 176.023 239.683 175.915 239.953 175.747C240.249 175.586 240.503 175.357 240.693 175.08C241.034 174.54 241.217 173.915 241.223 173.277C241.223 173.277 246.343 171.777 247.743 173.277C247.993 173.548 248.202 173.855 248.363 174.187C248.828 175.222 249.056 176.348 249.03 177.483C249.03 177.483 249.29 179.11 249.713 180.97C250.137 182.83 242.11 181.75 242.11 181.75Z" fill="#2D293D"/>
<path d="M264.923 179.45L260.257 177.783C258.97 176.743 259.38 175.56 260.03 174.693C260.252 174.415 260.532 174.188 260.85 174.028C261.168 173.868 261.517 173.779 261.873 173.767C262.058 173.748 262.238 173.699 262.407 173.623C262.53 173.571 262.65 173.512 262.767 173.447C264.07 172.73 264.037 170.97 264.037 170.97C264.037 170.97 269.153 169.47 270.557 170.97C270.745 171.173 270.909 171.397 271.047 171.637C271.923 173.153 271.827 175.177 271.827 175.177C271.827 175.177 272.087 176.807 272.493 178.663C272.9 180.52 264.923 179.45 264.923 179.45Z" fill="#2D293D"/>
<path opacity="0.1" d="M247.747 173.273C247.997 173.545 248.205 173.852 248.367 174.183L240.7 175.073C241.04 174.533 241.224 173.909 241.23 173.27C241.23 173.27 246.347 171.773 247.747 173.273Z" fill="black"/>
<path opacity="0.1" d="M271.053 171.643V173.08C269.86 175.043 264.09 174.613 262.413 173.63C262.537 173.578 262.657 173.519 262.773 173.453C264.077 172.737 264.043 170.977 264.043 170.977C264.043 170.977 269.16 169.477 270.563 170.977C270.751 171.18 270.915 171.403 271.053 171.643V171.643Z" fill="black"/>
<path d="M271.963 165.45C271.607 166.076 271.302 166.731 271.053 167.407V172.557C269.747 174.707 262.97 173.99 262.053 172.817C261.137 171.643 260.18 168.59 261.21 168.06C262.24 167.53 263.1 164.93 263.1 164.93C263.1 164.93 261.99 165.19 260.23 163.103C258.47 161.017 258.993 156.39 259.32 155.283C259.647 154.177 259.32 150.46 259.32 150.46C259.32 150.46 259.387 147.85 258.867 147.003C258.347 146.157 257.237 141.337 257.237 141.337C257.237 141.337 257.237 139.707 256.323 138.86C255.41 138.013 254.823 134.687 254.823 134.687C254.289 133.855 254.06 132.865 254.173 131.883C254.367 130.253 253.063 128.493 253.063 128.493L250.847 121.45L248.76 116.17L247.587 119.233C247.587 119.233 247.253 126.403 247.523 127.9C247.793 129.397 248.19 133.377 248.19 133.377C248.19 133.377 246.887 135.983 247.473 138.2C248.06 140.417 247.847 145.18 247.847 145.18C247.847 145.18 248.433 155.02 247.91 155.803C247.387 156.587 247.453 158.543 247.453 158.543C247.453 158.543 250.12 164.277 249.28 165.06C248.44 165.843 248.693 167.993 248.693 167.993C248.693 167.993 250.517 167.993 249.737 168.777C248.957 169.56 248.367 173.667 248.367 173.667L240.483 174.59C240.483 174.59 239.763 173.68 238.72 171.257C237.677 168.833 238.913 169.107 239.963 168.843C241.013 168.58 240.35 167.933 239.11 167.15C237.87 166.367 238.59 164.607 238.59 164.607C238.59 164.607 240.48 161.413 239.827 161.153C239.173 160.893 239.11 156.393 239.11 156.393C239.11 156.393 237.807 151.06 238.133 149.613C238.46 148.167 237.09 144.727 237.09 144.727L236.633 140.62C235.239 138.29 234.73 135.535 235.2 132.86V126.527C235.2 126.527 233.373 114.273 233.113 108.08C232.947 104.113 232.993 98.7 233.047 95.3233C233.08 93.43 233.113 92.1733 233.113 92.1733L261.273 89.24C261.273 89.24 261.247 90.54 261.783 93.4233C262.073 94.97 262.523 96.9733 263.23 99.4767C265.25 106.647 264.013 111.99 264.013 111.99L263.75 121.053C263.75 121.053 266.227 127.113 265.707 129.2C265.392 130.439 265.216 131.709 265.18 132.987C265.18 132.987 270.72 146.22 270.133 150.067C269.547 153.913 271.957 159.977 271.957 159.977C271.957 159.977 272.617 164.277 271.963 165.45Z" fill="#464353"/>
<path opacity="0.05" d="M255.863 131.49L264.437 130.347C264.437 130.347 259.58 135.303 255.863 131.49Z" fill="black"/>
<path opacity="0.1" d="M263.197 121.97C263.197 121.97 263.49 125.003 261.633 126.143C261.633 126.143 264.956 125.623 263.197 121.97Z" fill="black"/>
<path opacity="0.1" d="M262.67 112.323C262.67 112.323 255.503 118.223 252.897 117.733C250.29 117.243 262.67 112.323 262.67 112.323Z" fill="black"/>
<path opacity="0.1" d="M245.237 134.257C245.237 134.257 239.793 135.493 239.63 137.68C239.467 139.867 245.237 134.257 245.237 134.257Z" fill="black"/>
<path opacity="0.05" d="M246.433 161.443C246.433 161.443 238.743 162.877 240.927 163.853C243.11 164.83 246.697 165.613 246.697 165.613C246.697 165.613 249.18 165.743 246.433 161.443Z" fill="black"/>
<g opacity="0.05">
<path opacity="0.05" d="M239.373 165.407C239.18 165.286 239.016 165.123 238.895 164.93C238.773 164.738 238.696 164.52 238.67 164.293L238.59 164.43C238.59 164.43 237.873 166.19 239.113 166.97C239.253 167.06 239.39 167.15 239.513 167.237C239.743 167.193 239.99 167.16 240.227 167.1C241.277 166.84 240.613 166.19 239.373 165.407Z" fill="black"/>
<path opacity="0.05" d="M249.28 164.883C249.493 164.69 249.487 164.19 249.357 163.55C249.023 164.053 248.927 164.84 248.92 165.437C249.001 165.23 249.123 165.041 249.28 164.883V164.883Z" fill="black"/>
<path opacity="0.05" d="M248.097 132.453C247.813 133.224 247.638 134.031 247.577 134.85C247.725 134.284 247.925 133.733 248.173 133.203L248.097 132.453Z" fill="black"/>
<path opacity="0.05" d="M265.71 129.033C265.761 128.799 265.785 128.56 265.78 128.32C265.683 128.807 265.617 129.257 265.567 129.653C265.61 129.45 265.657 129.257 265.71 129.033Z" fill="black"/>
<path opacity="0.05" d="M247.913 155.63C248.02 155.47 248.08 154.93 248.107 154.18C247.865 154.76 247.738 155.382 247.73 156.01C247.776 155.876 247.837 155.749 247.913 155.63V155.63Z" fill="black"/>
<path opacity="0.05" d="M249.513 167.923C249.109 169.231 248.809 170.568 248.617 171.923L240.733 172.833C240.733 172.833 240.013 171.923 238.97 169.5C238.886 169.313 238.811 169.121 238.747 168.927C238.273 169.143 238.08 169.633 238.707 171.063C239.75 173.477 240.473 174.397 240.473 174.397L248.357 173.483C248.357 173.483 248.943 169.377 249.723 168.593C250.123 168.217 249.877 168.02 249.513 167.923Z" fill="black"/>
<path opacity="0.05" d="M239.113 156.217C239.113 156.217 239.177 160.713 239.83 160.973C240.163 160.23 240.38 159.523 240.087 159.407C239.42 159.147 239.37 154.647 239.37 154.647C239.37 154.647 238.067 149.313 238.393 147.867C238.72 146.42 237.35 142.98 237.35 142.98L236.893 138.873C235.499 136.543 234.99 133.788 235.46 131.113V124.78C235.46 124.78 233.633 112.527 233.373 106.333C233.207 102.367 233.253 96.9533 233.307 93.5766C233.307 92.9666 233.327 92.4266 233.337 91.97L233.113 91.9933C233.113 91.9933 233.077 93.2466 233.047 95.1433C232.993 98.52 232.943 103.933 233.113 107.897C233.373 114.09 235.197 126.347 235.197 126.347V132.68C234.729 135.354 235.239 138.107 236.633 140.437L237.087 144.543C237.087 144.543 238.457 147.997 238.13 149.433C237.803 150.87 239.113 156.217 239.113 156.217Z" fill="black"/>
<path opacity="0.05" d="M262.32 171.077C261.68 170.149 261.253 169.092 261.07 167.98C260.267 168.707 261.19 171.527 262.07 172.647C262.98 173.82 269.76 174.537 271.07 172.383V171.143C269.293 172.887 263.18 172.187 262.32 171.077Z" fill="black"/>
<path opacity="0.05" d="M272.227 163.71C271.869 164.336 271.564 164.991 271.313 165.667V166.59C271.463 166.257 271.673 165.81 271.98 165.283C272.186 164.77 272.284 164.22 272.267 163.667C272.267 163.667 272.237 163.697 272.227 163.71Z" fill="black"/>
<path opacity="0.05" d="M262.72 164.74C262.968 164.238 263.183 163.72 263.363 163.19C263.363 163.19 262.253 163.45 260.493 161.363C259.213 159.847 259.14 156.98 259.323 155.107C258.99 156.217 258.473 160.843 260.233 162.93C261.383 164.293 262.253 164.653 262.72 164.74Z" fill="black"/>
<path opacity="0.05" d="M259.32 150.283C259.435 151.568 259.478 152.858 259.45 154.147C259.483 153.943 259.527 153.742 259.583 153.543C259.917 152.433 259.583 148.72 259.583 148.72C259.583 148.72 259.65 146.11 259.127 145.263C258.603 144.417 257.513 139.59 257.513 139.59C257.513 139.59 257.513 137.96 256.6 137.113C255.687 136.267 255.1 132.94 255.1 132.94C254.561 132.11 254.326 131.12 254.433 130.137C254.63 128.507 253.327 126.747 253.327 126.747L251.11 119.707L249.023 114.427L247.847 117.493C247.847 117.493 247.847 117.88 247.807 118.493L248.76 116.003L250.847 121.273L253.063 128.313C253.063 128.313 254.367 130.073 254.17 131.703C254.062 132.687 254.298 133.677 254.837 134.507C254.837 134.507 255.423 137.84 256.337 138.68C257.25 139.52 257.247 141.157 257.247 141.157C257.247 141.157 258.357 145.98 258.877 146.823C259.397 147.667 259.32 150.283 259.32 150.283Z" fill="black"/>
</g>
<path d="M264.793 30.35L264.303 32.73L264.333 33.79L264.353 34.57L261.633 34.85L261.33 34.2867C260.767 33.2667 259.597 31.1933 259.22 30.8733C258.717 30.4533 257.82 23.8333 258.887 24.2267C259.543 24.4803 260.083 24.9684 260.4 25.5967C260.4 25.5967 265.757 26.21 264.793 30.35Z" fill="#FFCDD3"/>
<path opacity="0.1" d="M264.353 34.5701L261.633 34.8501L261.33 34.2867C261.696 33.8702 262.195 33.5935 262.742 33.5035C263.289 33.4135 263.85 33.516 264.33 33.7934L264.353 34.5701Z" fill="black"/>
<path d="M265.04 35.86L261.453 36.69L261.377 36.1567L261.173 34.72C261.173 34.72 262.593 32.8267 264.647 34.2467L264.827 34.9767L265.04 35.86Z" fill="#84A98C"/>
<path d="M206.94 30.61L203.11 32.6634L202.777 31.9434C202.413 31.18 201.87 30.03 201.72 29.61C201.493 28.9767 199.897 28.1767 199.897 28.1767C195.897 24.3467 200.663 21.0534 200.663 21.0534C203.19 15.97 205.997 22.78 205.997 22.78C205.997 22.78 206.39 26.37 206.113 26.61C205.837 26.85 205.837 27.8334 205.837 27.8334C206.202 28.5379 206.511 29.2702 206.76 30.0234C206.877 30.3867 206.94 30.61 206.94 30.61Z" fill="#FFCDD3"/>
<path opacity="0.1" d="M206.94 30.61L203.11 32.6633L202.777 31.9433C203.317 31.49 205.233 29.9433 205.863 30.0067C206.164 30.0442 206.468 30.052 206.77 30.03C206.877 30.3867 206.94 30.61 206.94 30.61Z" fill="black"/>
<path d="M207.33 31.7667L203.027 33.8867L202.94 32.9633L202.88 32.3233C202.88 32.3233 205.373 30.1867 206.11 30.27C206.482 30.324 206.861 30.324 207.233 30.27L207.283 31.0433L207.33 31.7667Z" fill="#84A98C"/>
<path d="M254.363 46.16C254.363 46.16 235.603 48.2767 239.11 47.1367C241.55 46.34 242.52 44.8033 242.723 43.07C242.89 41.6267 242.517 40.07 242.027 38.7367C241.586 37.5538 241.027 36.4182 240.36 35.3467C240.36 35.3467 254.693 27.46 251.83 34.63C251.388 35.7145 251.114 36.8598 251.017 38.0267C250.93 39.1863 251.056 40.3519 251.387 41.4667C251.927 43.2755 252.957 44.8998 254.363 46.16V46.16Z" fill="#FFCDD3"/>
<path opacity="0.1" d="M251.82 34.62C251.378 35.7045 251.104 36.8498 251.007 38.0167C249.657 39.1533 248.177 39.0767 246.273 39.0767C244.813 39.0767 243.193 39.43 242.027 38.7267C241.586 37.5438 241.027 36.4081 240.36 35.3367C240.36 35.3367 254.69 27.45 251.82 34.62Z" fill="black"/>
<path d="M246.02 39.5767C250.304 39.5767 253.777 36.1039 253.777 31.82C253.777 27.5361 250.304 24.0633 246.02 24.0633C241.736 24.0633 238.263 27.5361 238.263 31.82C238.263 36.1039 241.736 39.5767 246.02 39.5767Z" fill="#FFCDD3"/>
<path opacity="0.1" d="M254.363 46.16C254.363 46.16 235.603 48.2767 239.11 47.1367C241.55 46.34 242.52 44.8033 242.723 43.07C243.657 42.07 245.533 41.3267 246.723 40.94C247.823 40.57 249.011 40.5502 250.123 40.8833C250.56 41.0151 250.977 41.2081 251.36 41.4567C251.906 43.2722 252.946 44.9004 254.363 46.16V46.16Z" fill="black"/>
<path opacity="0.1" d="M265.04 35.86L261.453 36.69L261.377 36.1567C261.761 35.6292 262.298 35.2329 262.915 35.0217C263.533 34.8106 264.2 34.7949 264.827 34.9767L265.04 35.86Z" fill="black"/>
<path opacity="0.1" d="M207.33 31.7667L203.027 33.8867L202.94 32.9634C204.334 32.2139 205.782 31.571 207.273 31.0401L207.33 31.7667Z" fill="black"/>
<path opacity="0.1" d="M261.783 93.43C254.513 94.59 244.18 96.07 242.54 95.57C241.177 95.1567 236.83 95.2 233.047 95.33C233.08 93.4367 233.113 92.18 233.113 92.18L261.273 89.2467C261.273 89.2467 261.247 90.5467 261.783 93.43Z" fill="black"/>
<path d="M269.03 91.7233C269.03 91.7233 245.107 95.83 242.54 95.0567C239.973 94.2833 226.79 95.12 226.79 95.12C220.857 99.0967 223.333 93.23 223.333 93.23C223.333 93.23 222.813 90.1667 223.53 87.69C224.011 85.8716 224.34 84.0163 224.513 82.1433C224.513 82.1433 224.383 78.23 225.1 77.3167C225.817 76.4033 226.667 69.8867 226.667 69.8867C226.667 69.8867 227.317 65.4533 227.253 64.4767C227.19 63.5 227.447 60.76 227.447 60.76L228.297 56.1967C223.407 55.5467 208.543 46.42 208.543 46.42C207.827 43.3566 202.287 36.1866 202.287 36.1866C202.206 35.5837 202.053 34.9928 201.83 34.4266C201.44 33.3833 207.307 31.2966 207.307 31.2966C207.307 31.2966 211.673 36.63 212.587 38.0766C213.5 39.5233 216.627 42.1833 216.627 42.1833C217.112 42.1333 217.603 42.1973 218.06 42.37L218.137 42.3933C219.184 42.8047 220.167 43.3661 221.053 44.06C222.523 44.0251 223.949 44.563 225.03 45.56C225.03 45.56 227.697 45.1667 228.16 45.6233C228.623 46.08 230.897 45.6233 230.897 45.6233C230.897 45.6233 233.177 40.8 234.677 42.2C236.177 43.6 242.54 43.5333 242.54 43.5333C243.387 42.4066 245.45 41.6 246.74 41.2C247.84 40.8315 249.028 40.8117 250.14 41.1433C250.62 41.2865 251.071 41.5121 251.473 41.81L255.343 45.59C255.343 45.59 256.45 44.1533 256.32 43.83C256.19 43.5066 257.623 43.2433 257.623 43.2433C257.623 43.2433 259.513 42.6566 260.23 42.46C260.947 42.2633 261.603 43.04 261.663 43.11C261.64 43.0266 261.15 41.4433 261.33 40.2433C261.51 39.0433 260.547 37.91 260.547 37.91C262.827 32.3033 267.977 36.9966 267.977 36.9966C267.977 36.9966 268.563 40.06 268.043 41.2333C267.523 42.4066 268.563 44.8833 268.433 45.5366C268.303 46.19 268.697 47.2966 268.697 48.5366C268.697 49.7766 268.03 52.12 267.653 53.1633C267.277 54.2067 264.133 56.5533 264.133 56.5533C264.133 56.5533 263.937 60.27 262.567 62.42C261.197 64.57 262.057 71.9233 262.057 71.9233C262.057 71.9233 263.36 77.66 264.99 79.4867C266.62 81.3133 269.03 91.7233 269.03 91.7233Z" fill="#3F3D56"/>
<path opacity="0.1" d="M234.157 48.83C234.157 48.83 233.44 46.68 232.787 46.4966C232.138 46.2581 231.506 45.9752 230.897 45.65L231.317 44.8466C231.317 44.8466 233.763 45.5133 234.157 46.2366C234.55 46.96 234.157 48.83 234.157 48.83Z" fill="black"/>
<path opacity="0.1" d="M221.053 44.0733C220.923 44.74 215.12 45.31 215.12 45.31L218.053 42.37L218.127 42.3967C219.179 42.8103 220.165 43.3751 221.053 44.0733V44.0733Z" fill="black"/>
<path d="M204.267 35.6466C204.554 35.6466 204.787 35.4138 204.787 35.1266C204.787 34.8394 204.554 34.6066 204.267 34.6066C203.98 34.6066 203.747 34.8394 203.747 35.1266C203.747 35.4138 203.98 35.6466 204.267 35.6466Z" fill="#575988"/>
<path d="M204.933 36.6899C205.221 36.6899 205.453 36.4571 205.453 36.1699C205.453 35.8828 205.221 35.6499 204.933 35.6499C204.646 35.6499 204.413 35.8828 204.413 36.1699C204.413 36.4571 204.646 36.6899 204.933 36.6899Z" fill="#575988"/>
<path d="M205.587 37.6533C205.874 37.6533 206.107 37.4205 206.107 37.1333C206.107 36.8461 205.874 36.6133 205.587 36.6133C205.3 36.6133 205.067 36.8461 205.067 37.1333C205.067 37.4205 205.3 37.6533 205.587 37.6533Z" fill="#575988"/>
<path d="M206.27 38.6933C206.557 38.6933 206.79 38.4605 206.79 38.1733C206.79 37.8861 206.557 37.6533 206.27 37.6533C205.983 37.6533 205.75 37.8861 205.75 38.1733C205.75 38.4605 205.983 38.6933 206.27 38.6933Z" fill="#575988"/>
<path d="M267.717 38.5399C267.95 38.5399 268.14 38.3504 268.14 38.1166C268.14 37.8828 267.95 37.6933 267.717 37.6933C267.483 37.6933 267.293 37.8828 267.293 38.1166C267.293 38.3504 267.483 38.5399 267.717 38.5399Z" fill="#575988"/>
<path d="M267.783 39.5034C268.017 39.5034 268.207 39.3138 268.207 39.08C268.207 38.8462 268.017 38.6567 267.783 38.6567C267.55 38.6567 267.36 38.8462 267.36 39.08C267.36 39.3138 267.55 39.5034 267.783 39.5034Z" fill="#575988"/>
<path d="M267.84 40.4633C268.074 40.4633 268.263 40.2738 268.263 40.04C268.263 39.8061 268.074 39.6166 267.84 39.6166C267.606 39.6166 267.417 39.8061 267.417 40.04C267.417 40.2738 267.606 40.4633 267.84 40.4633Z" fill="#575988"/>
<path opacity="0.1" d="M234.18 66.4967C234.117 66.42 248.813 84.9766 260.22 74.2533C260.23 74.2567 242.207 76.7 234.18 66.4967Z" fill="black"/>
<path opacity="0.1" d="M225.747 76.1434C225.747 76.1434 234.54 76.3834 235.46 78.9134V81.5467C235.21 81.6856 234.928 81.7585 234.642 81.7585C234.355 81.7585 234.074 81.6856 233.823 81.5467C232.937 81.0667 227.62 78.3667 225.747 79.6667V76.1434Z" fill="black"/>
<path d="M225.91 76.1434C225.91 76.1434 234.32 76.3734 235.2 78.7867V81.2934C234.96 81.4264 234.691 81.4963 234.417 81.4963C234.143 81.4963 233.873 81.4264 233.633 81.2934C232.787 80.84 227.703 78.2634 225.91 79.5034V76.1434Z" fill="#3F3D56"/>
<path opacity="0.1" d="M230.547 57.05C231.445 59.1295 232.59 61.0935 233.957 62.9C235.443 64.8967 237.244 66.6383 239.29 68.0566C239.29 68.0566 230.693 58.2566 230.547 57.05Z" fill="black"/>
<path opacity="0.1" d="M227.67 46.8333C227.67 46.8333 229.137 53.1667 232.917 55.3167L227.67 46.8333Z" fill="black"/>
<path opacity="0.1" d="M225.42 47.4733C225.383 47.3566 224.117 52.4733 230.294 55.3166C230.294 55.3166 227.67 54.4266 225.42 47.4733Z" fill="black"/>
<path opacity="0.1" d="M263.817 43.2267C263.72 43.2267 266.863 45.2267 267.72 46.16C267.72 46.16 265.673 43.0933 263.817 43.2267Z" fill="black"/>
<path d="M243.923 38.85C243.924 39.0192 243.961 39.1863 244.03 39.3408C244.099 39.4953 244.199 39.6338 244.325 39.7475C244.45 39.8612 244.597 39.9477 244.758 40.0015C244.918 40.0553 245.088 40.0752 245.257 40.06C247.62 40.2066 250.083 40.31 252.257 39.3933C252.664 39.2478 253.03 39.0053 253.323 38.6866C253.71 38.21 253.787 37.5633 253.943 36.97C254.25 35.81 254.903 34.78 255.373 33.6766C256.169 31.8125 256.435 29.7655 256.143 27.76C256.082 27.1452 255.879 26.5531 255.55 26.03C254.923 25.1333 253.78 24.77 252.95 24.0566C252.12 23.3433 251.587 22.2533 250.617 21.7233C249.743 21.2366 248.673 21.2966 247.69 21.4633C245.756 21.7917 243.902 22.4876 242.23 23.5133C241.667 23.8466 241.05 24.2566 240.403 24.1333C239.837 24.0266 239.423 23.55 239.07 23.1033C238.615 24.17 238.425 25.3305 238.513 26.4866C238.538 26.6563 238.532 26.8289 238.497 26.9966C238.415 27.1994 238.291 27.3823 238.133 27.5333C237.55 28.2 237.187 29.2833 237.763 29.97C238.013 30.2666 238.4 30.43 238.643 30.7333C239.08 31.2766 238.933 32.0666 238.923 32.76C238.899 33.0021 238.961 33.245 239.097 33.4466C239.223 33.5642 239.377 33.6471 239.545 33.6874C239.712 33.7277 239.888 33.724 240.053 33.6766C240.384 33.5772 240.73 33.5443 241.073 33.58C241.435 33.6975 241.747 33.932 241.96 34.2466C243.037 35.65 243.463 37.1766 243.923 38.85Z" fill="#2D293D"/>
<g opacity="0.1">
<path opacity="0.1" d="M253.6 38.0966C253.307 38.4152 252.941 38.6577 252.533 38.8032C250.347 39.7132 247.887 39.6099 245.533 39.4699C245.281 39.4724 245.031 39.4165 244.803 39.3066C244.443 39.0966 244.307 38.6566 244.197 38.2566C243.737 36.5899 243.313 35.0599 242.22 33.6699C242.009 33.3493 241.697 33.1087 241.333 32.9866C240.99 32.9542 240.644 32.987 240.313 33.0833C240.148 33.1311 239.973 33.1353 239.805 33.0956C239.638 33.0559 239.483 32.9736 239.357 32.8566C239.221 32.6549 239.159 32.412 239.183 32.1699C239.183 31.4699 239.34 30.6866 238.903 30.1433C238.66 29.8399 238.273 29.6766 238.023 29.3766C237.86 29.1554 237.76 28.8942 237.734 28.6206C237.707 28.3471 237.756 28.0716 237.873 27.8233C237.457 28.4899 237.28 29.3266 237.763 29.8999C238.013 30.1966 238.4 30.3599 238.643 30.6633C239.08 31.2099 238.933 31.9966 238.923 32.6899C238.898 32.9317 238.958 33.1747 239.093 33.3766C239.22 33.4947 239.375 33.578 239.543 33.6183C239.711 33.6586 239.887 33.6546 240.053 33.6066C240.384 33.5071 240.73 33.4743 241.073 33.5099C241.435 33.6274 241.747 33.862 241.96 34.1766C243.05 35.5666 243.477 37.0933 243.937 38.7666C243.991 39.1783 244.196 39.5552 244.513 39.8232C244.742 39.9334 244.993 39.9882 245.247 39.9832C247.61 40.1299 250.073 40.2366 252.247 39.3166C252.655 39.1721 253.021 38.9294 253.313 38.6099C253.46 38.4221 253.573 38.21 253.647 37.9832C253.65 38.0266 253.627 38.0633 253.6 38.0966Z" fill="black"/>
<path opacity="0.1" d="M238.513 26.7933C238.618 26.6796 238.699 26.5457 238.75 26.3999C238.78 26.2313 238.78 26.0586 238.75 25.8899C238.685 24.9396 238.808 23.9858 239.113 23.0833L239.07 23.0333C238.614 24.0984 238.423 25.2582 238.513 26.4133C238.523 26.5398 238.523 26.6668 238.513 26.7933V26.7933Z" fill="black"/>
</g>
<path opacity="0.1" d="M242.54 43.55C242.54 43.55 252.23 44.8366 253.1 43.38Z" fill="black"/>
<path opacity="0.1" d="M261.377 39.54C261.377 39.54 266.763 39.54 267.947 41.5667Z" fill="black"/>
<path d="M291.513 219.59C289.916 221.018 287.839 221.794 285.697 221.763C285.15 221.763 284.393 221.867 284.39 222.413C284.403 222.574 284.458 222.728 284.55 222.86C285.226 223.987 286.294 224.826 287.55 225.217C288.717 225.57 289.963 225.51 291.18 225.447L294.73 225.263C295.397 225.227 296.063 225.193 296.73 225.11C297.397 225.027 298.123 224.89 298.82 224.777C300.532 224.533 302.263 224.453 303.99 224.537C304.45 224.553 304.99 224.537 305.263 224.203C305.537 223.87 305.397 223.233 305.293 222.733C305.08 221.703 305.293 220.623 305.097 219.59C304.763 217.777 303.193 216.387 301.473 215.73C299.873 215.123 297.04 214.427 295.527 215.44C293.93 216.503 292.953 218.28 291.513 219.59Z" fill="#3F3D56"/>
<path d="M295.04 158.837C295.353 160.327 296.797 161.467 296.837 162.987C296.873 164.207 296.003 165.23 295.377 166.273C294.786 167.354 294.288 168.482 293.887 169.647C292.707 172.678 291.242 175.591 289.513 178.347C288.68 179.68 287.747 181.103 287.937 182.653C288.069 183.378 288.325 184.075 288.693 184.713L291.193 189.68C291.741 190.672 292.169 191.725 292.47 192.817C292.687 193.76 292.707 194.737 292.833 195.697C293.227 198.743 294.657 201.81 293.81 204.763C293.737 205.017 293.477 205.323 293.273 205.147C294.1 206.69 294.763 208.243 294.7 209.993C294.667 210.91 294.387 211.867 294.723 212.72C294.867 213.077 295.117 213.41 295.113 213.793C295.113 214.047 294.997 214.283 294.97 214.53C294.9 215.233 295.547 215.82 296.217 216.043C296.887 216.267 297.617 216.25 298.293 216.453C299.593 216.843 300.523 217.963 301.627 218.74C302.759 219.52 304.093 219.954 305.467 219.99C305.663 220.011 305.86 219.971 306.033 219.877C306.131 219.791 306.21 219.686 306.264 219.567C306.318 219.449 306.346 219.32 306.347 219.19C306.407 218.568 306.313 217.94 306.074 217.362C305.834 216.784 305.456 216.274 304.973 215.877C304.761 215.744 304.586 215.561 304.463 215.343C304.401 215.151 304.385 214.947 304.417 214.747C304.618 212.015 304.569 209.27 304.27 206.547C304.135 205.684 304.092 204.809 304.14 203.937C304.21 203.21 304.43 202.49 304.35 201.767C304.27 201.043 303.9 200.383 303.683 199.687C303.297 198.447 303.403 197.113 303.35 195.817C303.283 193.563 302.767 191.35 302.253 189.15C302.05 188.287 301.827 187.383 301.217 186.743C300.697 186.2 299.857 185.68 300.053 184.957C300.162 184.69 300.324 184.448 300.53 184.247C300.771 183.944 300.948 183.595 301.05 183.221C301.152 182.848 301.177 182.457 301.123 182.073C301.343 182.129 301.574 182.107 301.779 182.011C301.984 181.915 302.149 181.751 302.247 181.547C306.307 179.63 309.58 175.797 311.04 171.547C311.126 171.231 311.259 170.93 311.433 170.653C311.81 170.127 312.463 169.9 313.043 169.61C314.863 168.693 316.12 166.977 317.273 165.297C317.94 164.323 318.607 163.317 318.907 162.17C319.064 161.428 319.139 160.672 319.13 159.913L319.233 155.997C319.256 155.739 319.231 155.479 319.16 155.23C319.061 154.997 318.917 154.787 318.737 154.61C317.628 153.438 316.172 152.652 314.583 152.37C313.517 152.18 312.427 152.217 311.347 152.127C309.253 151.953 307.187 151.303 305.093 151.46C301.803 151.703 298.873 153.983 297.323 156.897C296.78 157.923 296.207 158.817 295.04 158.837Z" fill="#464353"/>
<path d="M276.773 133.37C276.818 133.975 276.736 134.582 276.533 135.153C276.277 135.7 275.633 136.127 275.07 135.903C275.24 135.52 274.79 135.083 274.37 135.13C274.163 135.178 273.971 135.275 273.811 135.413C273.65 135.551 273.525 135.726 273.447 135.923C273.168 136.483 273.075 137.117 273.18 137.733C273.313 138.5 273.757 139.237 273.64 140.007C273.547 140.647 273.077 141.283 273.327 141.877C273.489 142.148 273.692 142.392 273.93 142.6C274.259 143.006 274.421 143.522 274.38 144.043C274.34 144.564 274.101 145.05 273.713 145.4L280.02 145.527C279.79 146.58 280.263 147.657 280.803 148.593C282.316 151.168 284.404 153.358 286.905 154.991C289.406 156.624 292.251 157.655 295.217 158.003C295.056 158.097 294.919 158.225 294.814 158.378C294.709 158.532 294.64 158.706 294.611 158.89C294.582 159.073 294.594 159.261 294.646 159.439C294.698 159.617 294.79 159.781 294.913 159.92C295.427 160.43 296.297 160.367 296.94 160.037C297.583 159.707 298.087 159.16 298.673 158.737C299.709 158.003 300.973 157.662 302.237 157.777C303.027 157.853 303.793 158.11 304.587 158.15C306.92 158.273 308.92 156.593 311.167 155.907C312.803 155.403 314.66 155.403 316.033 154.38C316.627 153.94 317.113 153.217 316.94 152.503C316.797 152.093 316.57 151.718 316.273 151.4C315.483 150.377 315.017 149.147 314.45 147.983C313.327 145.68 311.782 143.609 309.893 141.877C308.468 140.631 306.958 139.486 305.373 138.45C304.99 138.167 304.582 137.921 304.153 137.713C303.6 137.47 302.987 137.353 302.487 137.047C301.747 136.58 301.32 135.757 300.75 135.093C299.5 133.633 297.58 132.963 296.04 131.817C295.007 131.047 294.093 130.033 292.86 129.663C292.26 129.48 291.623 129.467 291.023 129.287C289.66 128.873 288.667 127.663 287.33 127.173C286.273 126.787 285.107 126.887 283.997 126.75C282.745 126.596 281.55 126.14 280.513 125.423C280.179 125.151 279.805 124.933 279.403 124.777C277.713 124.263 277.577 127.41 277.403 128.5C277.18 130.12 276.773 131.73 276.773 133.37Z" fill="#84A98C"/>
<path d="M278.42 143.923C278.703 146.997 276.383 149.973 277.06 152.983C277.203 153.623 277.48 154.233 277.58 154.883C277.863 156.667 276.797 158.357 275.78 159.85L267.047 172.667C266.696 173.229 266.277 173.747 265.8 174.207C264.133 175.69 261.627 175.54 259.433 175.98C257.893 176.297 256.438 176.94 255.167 177.867C255.109 177.911 255.072 177.976 255.062 178.047C255.052 178.119 255.07 178.192 255.113 178.25C255.475 178.743 255.955 179.138 256.509 179.398C257.063 179.658 257.673 179.776 258.283 179.74C258.513 180.04 258.283 180.487 257.967 180.703C257.5 181.037 256.853 181.113 256.76 181.91C256.728 182.187 256.784 182.467 256.92 182.71C257.273 183.247 257.82 183.627 258.447 183.77C261.47 184.697 264.737 183.07 267 180.86C269.263 178.65 270.887 175.86 273.107 173.613C274.337 172.367 275.733 171.303 277 170.097C279.527 167.687 281.493 164.763 283.387 161.833C283.957 160.95 284.533 160.043 284.77 159.02C285.007 157.997 284.897 156.96 285.167 155.97C285.52 154.673 286.47 153.637 287.26 152.55C288.81 150.417 289.847 147.807 289.64 145.177C289.433 142.547 287.807 139.953 285.327 139.06C284.557 138.754 283.71 138.703 282.91 138.913C281.893 139.227 281.143 140.067 280.45 140.873L278.783 142.787C278.377 143.21 278.059 143.71 277.847 144.257C277.739 144.532 277.713 144.833 277.773 145.122C277.832 145.412 277.973 145.679 278.18 145.89" fill="#FBBEBE"/>
<path d="M282.847 131.317C281.7 131.383 280.437 131.497 279.627 132.317C279.287 132.693 279.012 133.123 278.813 133.59C278.027 135.193 277.26 136.87 277.203 138.657C277.157 140.083 277.57 141.48 277.787 142.89C277.967 144.063 277.51 145.26 277.423 146.447C278.847 146.01 280.727 145.417 282.017 144.68C282.897 144.177 283.747 143.603 284.707 143.283C286.077 142.827 288.373 143.617 289.677 144.25C289.747 143.337 289.06 141.743 289.133 140.827C289.144 140.441 289.212 140.059 289.337 139.693C289.532 139.307 289.763 138.94 290.027 138.597C290.523 137.79 290.751 136.847 290.679 135.903C290.606 134.959 290.237 134.061 289.623 133.34C288.467 132.04 286.657 131.553 284.93 131.34C283.843 131.214 282.747 131.176 281.653 131.227" fill="#84A98C"/>
</g>
<defs>
<linearGradient id="paint0_linear" x1="235.407" y1="182.06" x2="235.407" y2="19.1734" gradientUnits="userSpaceOnUse">
<stop stop-color="#808080" stop-opacity="0.25"/>
<stop offset="0.54" stop-color="#808080" stop-opacity="0.12"/>
<stop offset="1" stop-color="#808080" stop-opacity="0.1"/>
</linearGradient>
<clipPath id="clip0">
<rect width="350" height="226.333" fill="white"/>
</clipPath>
</defs>
</svg>
